<svg xmlns="http://www.w3.org/2000/svg" xmlns:osb="http://www.openswatchbook.org/uri/2009/osb" xmlns:svg="http://www.w3.org/2000/svg" id="svg4168" version="1.1"><defs id="defs4170"><linearGradient id="Foreground" osb:paint="solid"><stop offset="0" style="stop-color:#000;stop-opacity:1"/></linearGradient></defs><metadata id="metadata4173"/><path style="fill:url(#Foreground);fill-opacity:1;stroke:none" id="path4136" d="M 8,2 8,4 7,4 5,4 5,21 19,21 19,20 6,20 6,5 l 1,0 0,1 10,0 0,-1 1,0 0,15 1,0 0,-16 -2,0 -1,0 0,-2 z m 1,1 6,0 0,1 -6,0 z"/><path style="fill:url(#Foreground);fill-opacity:1;stroke:none" id="path4136" d="m 8,8 0,1 8,0 0,-1 z m 0,4 0,1 8,0 0,-1 z m 0,4 0,1 8,0 0,-1 z"/></svg>