<svg xmlns="http://www.w3.org/2000/svg" xmlns:osb="http://www.openswatchbook.org/uri/2009/osb" xmlns:svg="http://www.w3.org/2000/svg" id="svg4168" version="1.1"><defs id="defs4170"><linearGradient id="Foreground" osb:paint="solid"><stop offset="0" style="stop-color:#000;stop-opacity:1"/></linearGradient></defs><metadata id="metadata4173"/><path style="fill:#000;fill-opacity:1;stroke:none" id="path4136" d="m 3,3 0,1 18,0 0,-1 z m 10,4 0,1 8,0 0,-1 z m 0,4 0,1 8,0 0,-1 z m 0,4 0,1 8,0 0,-1 z m -10,4 0,1 18,0 0,-1 z"/><path style="fill:url(#Foreground);fill-opacity:1;stroke:none" id="path4137" d="m 6.5,8 1,0.5 -2.5,2.5 6.5,0 0,1 L 5,12 7.5,14.5 6.5,15 3,11.5 C 3,11.5 5.3772,9.1995 6.5,8 Z"/></svg>