<svg xmlns="http://www.w3.org/2000/svg" xmlns:osb="http://www.openswatchbook.org/uri/2009/osb" xmlns:svg="http://www.w3.org/2000/svg" id="svg4168" version="1.1"><defs id="defs4170"><linearGradient id="Foreground" osb:paint="solid"><stop offset="0" style="stop-color:#000;stop-opacity:1"/></linearGradient></defs><metadata id="metadata4173"/><path style="fill:url(#Foreground);fill-opacity:1;stroke:none" id="path4136" d="M 18,5 18,19 17,20 6,20 5,19 5,5 4,5 4,4 9,4 9,3 l 1,-1 3,0 1,1 0,1 5,0 0,1 -1,0 z M 12,3 11,3 10,4 13,4 12,3 Z m 5,2 -11,0 0,13 1,1 9,0 1,-1 0,-13 z m -3,2 1,0 0,10 -1,0 0,-10 z m -3,0 1,0 0,10 -1,0 0,-10 z M 8,7 9,7 9,17 8,17 8,7 Z"/></svg>