<svg xmlns="http://www.w3.org/2000/svg" xmlns:osb="http://www.openswatchbook.org/uri/2009/osb" xmlns:svg="http://www.w3.org/2000/svg" id="svg4168" version="1.1"><defs id="defs4170"><linearGradient id="Foreground" osb:paint="solid"><stop offset="0" style="stop-color:#000;stop-opacity:1"/></linearGradient></defs><metadata id="metadata4173"/><path style="fill:#000;fill-opacity:1;stroke:none" id="path4136" d="m 3,3 0,1 18,0 0,-1 z m 10,4 0,1 8,0 0,-1 z m 0,4 0,1 8,0 0,-1 z m 0,4 0,1 8,0 0,-1 z m -10,4 0,1 18,0 0,-1 z"/><path style="fill:url(#Foreground);fill-opacity:1;stroke:none" id="path4137" d="M 8,8 7,8.5 9.5,11 3,11 3,12 9.5,12 7,14.5 8,15 11.5,11.5 C 11.5,11.5 9.1228,9.1995 8,8 Z"/></svg>