<svg xmlns="http://www.w3.org/2000/svg" xmlns:osb="http://www.openswatchbook.org/uri/2009/osb" xmlns:svg="http://www.w3.org/2000/svg" id="svg4168" version="1.1"><defs id="defs4170"><linearGradient id="Foreground" osb:paint="solid"><stop offset="0" style="stop-color:#000;stop-opacity:1"/></linearGradient></defs><metadata id="metadata4173"/><path style="fill:url(#Foreground);fill-opacity:1;stroke:none" id="path4136" d="M 8 2 L 8 4 L 7 4 L 5 4 L 5 21 L 12 21 L 12 20 L 6 20 L 6 5 L 7 5 L 7 6 L 17 6 L 17 5 L 18 5 L 18 8 L 19 8 L 19 4 L 17 4 L 16 4 L 16 2 L 8 2 z M 9 3 L 15 3 L 15 4 L 9 4 L 9 3 z M 13 9 L 13 22 L 22 22 L 22 9 L 13 9 z M 14 10 L 21 10 L 21 21 L 14 21 L 14 10 z"/><path style="fill:url(#Foreground);fill-opacity:1;stroke:none" id="path4136" d="m 15,12 0,1 5,0 0,-1 z m 0,3 0,1 5,0 0,-1 z m 0,3 0,1 5,0 0,-1 z"/></svg>