<svg xmlns="http://www.w3.org/2000/svg" xmlns:osb="http://www.openswatchbook.org/uri/2009/osb" xmlns:svg="http://www.w3.org/2000/svg" id="svg4168" version="1.1"><defs id="defs4170"><linearGradient id="Foreground" osb:paint="solid"><stop offset="0" style="stop-color:#000;stop-opacity:1"/></linearGradient></defs><metadata id="metadata4173"/><path style="fill:url(#Foreground);fill-opacity:1;stroke:none" id="path4136" d="m 17,18 0,4 -10,0 0,-4 -5,0 0,-10 3,0 0,-6 14,0 0,6 3,0 0,10 z m -9,3 8,0 0,-7 -8,0 z M 18,3 6,3 6,8 18,8 Z m 3,10 0,-4 -2,0 -12,0 -4,0 0,4 0,4 4,0 0,-4 10,0 0,4 4,0 z m -17,-3 2,0 0,2 -2,0 z"/></svg>