<svg xmlns="http://www.w3.org/2000/svg" xmlns:osb="http://www.openswatchbook.org/uri/2009/osb" xmlns:svg="http://www.w3.org/2000/svg" id="svg4168" version="1.1"><defs id="defs4170"><linearGradient id="Foreground" osb:paint="solid"><stop offset="0" style="stop-color:#000;stop-opacity:1"/></linearGradient></defs><metadata id="metadata4173"/><path style="fill:#fff;fill-opacity:1;stroke:none" id="path4136" d="m 2,4 14,0 0,1 -13,0 0,16 14,0 0,-5 1,0 0,6 -16,0 M 5,7 14,7 14,8 5,8 m 0,2 7,0 0,1 -7,0 m 0,2 5,0 0,1 -5,0 M 19,2 13.5,14 15.5,16 22,5 M 12.779,15.816 14.353,17.307 13,19 12,18 Z"/></svg>