<svg xmlns="http://www.w3.org/2000/svg" xmlns:osb="http://www.openswatchbook.org/uri/2009/osb" xmlns:svg="http://www.w3.org/2000/svg" id="svg4168" version="1.1"><defs id="defs4170"><linearGradient id="Foreground" osb:paint="solid"><stop offset="0" style="stop-color:#000;stop-opacity:1"/></linearGradient></defs><metadata id="metadata4173"/><path style="fill:url(#Foreground);fill-opacity:1;stroke:none" id="path4136" d="m 4,10 c 0,-3.3 2.7,-6 6,-6 3.3,0 6,2.7 6,6 0,1.4 -0.5,2.7 -1.3,3.7 L 21,20 20,21 13.7,14.7 C 12.7,15.5 11.4,16 10,16 6.7,16 4,13.3 4,10 Z m 1,0 c 0,2.8 2.2,5 5,5 1.2,0 2.3,-0.4 3.1,-1.1 l 0.7,-0.7 C 14.6,12.3 15,11.2 15,10 15,7.2 12.8,5 10,5 7.2,5 5,7.3 5,10 Z"/></svg>