<svg xmlns="http://www.w3.org/2000/svg" width="20" height="20" version="1.1" viewBox="0 0 20 20"><path d="M 1 4 C 0.5 4 0 4.5 0 5 L 0 15 C 0 15.5 0.5 16 1 16 L 13 16 L 13 4 L 1 4 z M 17 4 L 17 16 L 19 16 C 19.5 16 20 15.5 20 15 L 20 5 C 20 4.5 19.5 4 19 4 L 17 4 z M 2 6 L 7 6 L 7 7 L 5 7 L 5 14 L 4 14 L 4 7 L 2 7 L 2 6 z M 8 6 L 9 6 L 12 6 L 12 7 L 9 7 L 9 9 L 11 9 L 11 10 L 9 10 L 9 13 L 12 13 L 12 14 L 9 14 L 8 14 L 8 6 z" style="opacity:1;fill:#fff;fill-opacity:1;fill-rule:nonzero;stroke:none;stroke-width:4.61000013;stroke-linecap:round;stroke-linejoin:miter;stroke-miterlimit:4;stroke-dasharray:none;stroke-dashoffset:0;stroke-opacity:1"/><rect width="2" height="20" x="14" y="0" style="opacity:1;fill:#fff;fill-opacity:1;fill-rule:nonzero;stroke:none;stroke-width:4.61000013;stroke-linecap:round;stroke-linejoin:miter;stroke-miterlimit:4;stroke-dasharray:none;stroke-dashoffset:0;stroke-opacity:1"/><rect width="8" height="2" x="11" y="0" rx=".5" ry=".5" style="opacity:1;fill:#fff;fill-opacity:1;fill-rule:nonzero;stroke:none;stroke-width:4.61000013;stroke-linecap:round;stroke-linejoin:miter;stroke-miterlimit:4;stroke-dasharray:none;stroke-dashoffset:0;stroke-opacity:1"/><rect width="8" height="2" x="11" y="18" rx=".5" ry=".5" style="opacity:1;fill:#fff;fill-opacity:1;fill-rule:nonzero;stroke:none;stroke-width:4.61000013;stroke-linecap:round;stroke-linejoin:miter;stroke-miterlimit:4;stroke-dasharray:none;stroke-dashoffset:0;stroke-opacity:1"/></svg>